<svg xmlns="http://www.w3.org/2000/svg" xmlns:xlink="http://www.w3.org/1999/xlink" width="14" height="24" version="1.1" viewBox="0 0 14 24"><title>Group 5</title><desc>Created with Sketch.</desc><g id="devices" fill="none" fill-rule="evenodd" stroke="none" stroke-width="1"><g id="Group-5"><g id="Group-4"><rect id="Rectangle" width="13.3" height="23.3" x=".35" y=".35" stroke="#FFF" stroke-width=".7" rx="1"/><path id="Combined-Shape" fill="#FFF" d="M2,0 L12,0 C13.1045695,-2.02906125e-16 14,0.8954305 14,2 L14,9 L0,9 L0,2 C-1.3527075e-16,0.8954305 0.8954305,2.02906125e-16 2,0 Z M2,4 L2,7 L9,7 L9,4 L2,4 Z"/></g><circle id="Oval" cx="3" cy="11" r="1" fill="#FFF"/><circle id="Oval" cx="7" cy="11" r="1" fill="#FFF"/><circle id="Oval" cx="11" cy="11" r="1" fill="#FFF"/><circle id="Oval" cx="3" cy="14" r="1" fill="#FFF"/><circle id="Oval" cx="7" cy="14" r="1" fill="#FFF"/><circle id="Oval" cx="11" cy="14" r="1" fill="#FFF"/><circle id="Oval" cx="3" cy="17" r="1" fill="#FFF"/><circle id="Oval" cx="7" cy="17" r="1" fill="#FFF"/><circle id="Oval" cx="11" cy="17" r="1" fill="#FFF"/><circle id="Oval" cx="3" cy="20" r="1" fill="#FFF"/><circle id="Oval" cx="7" cy="20" r="1" fill="#FFF"/><circle id="Oval" cx="11" cy="20" r="1" fill="#FFF"/></g></g></svg>