<svg xmlns="http://www.w3.org/2000/svg" xmlns:xlink="http://www.w3.org/1999/xlink" width="14" height="24" version="1.1" viewBox="0 0 14 24"><title>Group 6</title><desc>Created with Sketch.</desc><g id="devices" fill="none" fill-rule="evenodd" stroke="none" stroke-width="1"><g id="Group-6"><rect id="Rectangle" width="13" height="23" x=".5" y=".5" stroke="#FFF" rx="2"/><g id="unknown_device" transform="translate(1.000000, 6.000000)"><polygon id="Path" points="0 0 12 0 12 12 0 12"/><path id="Shape" fill="#FFF" fill-rule="nonzero" d="M7.5,4.5 L4.5,4.5 L4.5,7.5 L7.5,7.5 L7.5,4.5 Z M6.5,6.5 L5.5,6.5 L5.5,5.5 L6.5,5.5 L6.5,6.5 Z M10.5,5.5 L10.5,4.5 L9.5,4.5 L9.5,3.5 C9.5,2.95 9.05,2.5 8.5,2.5 L7.5,2.5 L7.5,1.5 L6.5,1.5 L6.5,2.5 L5.5,2.5 L5.5,1.5 L4.5,1.5 L4.5,2.5 L3.5,2.5 C2.95,2.5 2.5,2.95 2.5,3.5 L2.5,4.5 L1.5,4.5 L1.5,5.5 L2.5,5.5 L2.5,6.5 L1.5,6.5 L1.5,7.5 L2.5,7.5 L2.5,8.5 C2.5,9.05 2.95,9.5 3.5,9.5 L4.5,9.5 L4.5,10.5 L5.5,10.5 L5.5,9.5 L6.5,9.5 L6.5,10.5 L7.5,10.5 L7.5,9.5 L8.5,9.5 C9.05,9.5 9.5,9.05 9.5,8.5 L9.5,7.5 L10.5,7.5 L10.5,6.5 L9.5,6.5 L9.5,5.5 L10.5,5.5 Z M8.5,8.5 L3.5,8.5 L3.5,3.5 L8.5,3.5 L8.5,8.5 Z"/></g></g></g></svg>