<svg xmlns="http://www.w3.org/2000/svg" xmlns:xlink="http://www.w3.org/1999/xlink" width="171" height="303" version="1.1" viewBox="0 0 171 303"><title>Group 2</title><desc>Created with Sketch.</desc><g id="devices" fill="none" fill-rule="evenodd" stroke="none" stroke-width="1"><g id="Group-2"><rect id="Rectangle" width="170" height="302" x=".5" y=".5" stroke="#FFF" rx="11"/><rect id="Rectangle" width="147" height="247" x="12.5" y="29.5" stroke="#FFF" rx="2"/><g id="Group" fill="#FFF" opacity=".39" transform="translate(44.000000, 87.000000)"><rect id="p" width="4" height="4" x="0" y="0"/><rect id="p" width="4" height="4" x="0" y="4"/><rect id="p" width="4" height="4" x="0" y="8"/><rect id="p" width="4" height="4" x="0" y="12"/><rect id="p" width="4" height="4" x="0" y="16"/><rect id="p" width="4" height="4" x="0" y="20"/><rect id="p" width="4" height="4" x="0" y="24"/><rect id="p" width="4" height="4" x="0" y="32"/><rect id="p" width="4" height="4" x="0" y="40"/><rect id="p" width="4" height="4" x="0" y="56"/><rect id="p" width="4" height="4" x="0" y="60"/><rect id="p" width="4" height="4" x="0" y="64"/><rect id="p" width="4" height="4" x="0" y="68"/><rect id="p" width="4" height="4" x="0" y="72"/><rect id="p" width="4" height="4" x="0" y="76"/><rect id="p" width="4" height="4" x="0" y="80"/><rect id="p" width="4" height="4" x="4" y="0"/><rect id="p" width="4" height="4" x="4" y="24"/><rect id="p" width="4" height="4" x="4" y="32"/><rect id="p" width="4" height="4" x="4" y="36"/><rect id="p" width="4" height="4" x="4" y="40"/><rect id="p" width="4" height="4" x="4" y="48"/><rect id="p" width="4" height="4" x="4" y="56"/><rect id="p" width="4" height="4" x="4" y="80"/><rect id="p" width="4" height="4" x="8" y="0"/><rect id="p" width="4" height="4" x="8" y="8"/><rect id="p" width="4" height="4" x="8" y="12"/><rect id="p" width="4" height="4" x="8" y="16"/><rect id="p" width="4" height="4" x="8" y="24"/><rect id="p" width="4" height="4" x="8" y="32"/><rect id="p" width="4" height="4" x="8" y="36"/><rect id="p" width="4" height="4" x="8" y="40"/><rect id="p" width="4" height="4" x="8" y="44"/><rect id="p" width="4" height="4" x="8" y="56"/><rect id="p" width="4" height="4" x="8" y="64"/><rect id="p" width="4" height="4" x="8" y="68"/><rect id="p" width="4" height="4" x="8" y="72"/><rect id="p" width="4" height="4" x="8" y="80"/><rect id="p" width="4" height="4" x="12" y="0"/><rect id="p" width="4" height="4" x="12" y="8"/><rect id="p" width="4" height="4" x="12" y="12"/><rect id="p" width="4" height="4" x="12" y="16"/><rect id="p" width="4" height="4" x="12" y="24"/><rect id="p" width="4" height="4" x="12" y="32"/><rect id="p" width="4" height="4" x="12" y="40"/><rect id="p" width="4" height="4" x="12" y="48"/><rect id="p" width="4" height="4" x="12" y="56"/><rect id="p" width="4" height="4" x="12" y="64"/><rect id="p" width="4" height="4" x="12" y="68"/><rect id="p" width="4" height="4" x="12" y="72"/><rect id="p" width="4" height="4" x="12" y="80"/><rect id="p" width="4" height="4" x="16" y="0"/><rect id="p" width="4" height="4" x="16" y="8"/><rect id="p" width="4" height="4" x="16" y="12"/><rect id="p" width="4" height="4" x="16" y="16"/><rect id="p" width="4" height="4" x="16" y="24"/><rect id="p" width="4" height="4" x="16" y="36"/><rect id="p" width="4" height="4" x="16" y="44"/><rect id="p" width="4" height="4" x="16" y="48"/><rect id="p" width="4" height="4" x="16" y="56"/><rect id="p" width="4" height="4" x="16" y="64"/><rect id="p" width="4" height="4" x="16" y="68"/><rect id="p" width="4" height="4" x="16" y="72"/><rect id="p" width="4" height="4" x="16" y="80"/><rect id="p" width="4" height="4" x="20" y="0"/><rect id="p" width="4" height="4" x="20" y="24"/><rect id="p" width="4" height="4" x="20" y="40"/><rect id="p" width="4" height="4" x="20" y="44"/><rect id="p" width="4" height="4" x="20" y="56"/><rect id="p" width="4" height="4" x="20" y="80"/><rect id="p" width="4" height="4" x="24" y="0"/><rect id="p" width="4" height="4" x="24" y="4"/><rect id="p" width="4" height="4" x="24" y="8"/><rect id="p" width="4" height="4" x="24" y="12"/><rect id="p" width="4" height="4" x="24" y="16"/><rect id="p" width="4" height="4" x="24" y="20"/><rect id="p" width="4" height="4" x="24" y="24"/><rect id="p" width="4" height="4" x="24" y="32"/><rect id="p" width="4" height="4" x="24" y="40"/><rect id="p" width="4" height="4" x="24" y="48"/><rect id="p" width="4" height="4" x="24" y="56"/><rect id="p" width="4" height="4" x="24" y="60"/><rect id="p" width="4" height="4" x="24" y="64"/><rect id="p" width="4" height="4" x="24" y="68"/><rect id="p" width="4" height="4" x="24" y="72"/><rect id="p" width="4" height="4" x="24" y="76"/><rect id="p" width="4" height="4" x="24" y="80"/><rect id="p" width="4" height="4" x="28" y="36"/><rect id="p" width="4" height="4" x="28" y="44"/><rect id="p" width="4" height="4" x="28" y="48"/><rect id="p" width="4" height="4" x="32" y="0"/><rect id="p" width="4" height="4" x="32" y="8"/><rect id="p" width="4" height="4" x="32" y="12"/><rect id="p" width="4" height="4" x="32" y="16"/><rect id="p" width="4" height="4" x="32" y="24"/><rect id="p" width="4" height="4" x="32" y="32"/><rect id="p" width="4" height="4" x="32" y="36"/><rect id="p" width="4" height="4" x="32" y="52"/><rect id="p" width="4" height="4" x="32" y="68"/><rect id="p" width="4" height="4" x="32" y="72"/><rect id="p" width="4" height="4" x="32" y="76"/><rect id="p" width="4" height="4" x="32" y="80"/><rect id="p" width="4" height="4" x="36" y="8"/><rect id="p" width="4" height="4" x="36" y="12"/><rect id="p" width="4" height="4" x="36" y="20"/><rect id="p" width="4" height="4" x="36" y="32"/><rect id="p" width="4" height="4" x="36" y="36"/><rect id="p" width="4" height="4" x="36" y="40"/><rect id="p" width="4" height="4" x="36" y="44"/><rect id="p" width="4" height="4" x="36" y="52"/><rect id="p" width="4" height="4" x="36" y="76"/><rect id="p" width="4" height="4" x="36" y="80"/><rect id="p" width="4" height="4" x="40" y="0"/><rect id="p" width="4" height="4" x="40" y="4"/><rect id="p" width="4" height="4" x="40" y="20"/><rect id="p" width="4" height="4" x="40" y="24"/><rect id="p" width="4" height="4" x="40" y="32"/><rect id="p" width="4" height="4" x="40" y="40"/><rect id="p" width="4" height="4" x="40" y="52"/><rect id="p" width="4" height="4" x="40" y="56"/><rect id="p" width="4" height="4" x="40" y="60"/><rect id="p" width="4" height="4" x="40" y="68"/><rect id="p" width="4" height="4" x="40" y="72"/><rect id="p" width="4" height="4" x="40" y="76"/><rect id="p" width="4" height="4" x="40" y="80"/><rect id="p" width="4" height="4" x="44" y="0"/><rect id="p" width="4" height="4" x="44" y="4"/><rect id="p" width="4" height="4" x="44" y="8"/><rect id="p" width="4" height="4" x="44" y="16"/><rect id="p" width="4" height="4" x="44" y="20"/><rect id="p" width="4" height="4" x="44" y="28"/><rect id="p" width="4" height="4" x="44" y="32"/><rect id="p" width="4" height="4" x="44" y="36"/><rect id="p" width="4" height="4" x="44" y="40"/><rect id="p" width="4" height="4" x="44" y="44"/><rect id="p" width="4" height="4" x="44" y="52"/><rect id="p" width="4" height="4" x="44" y="56"/><rect id="p" width="4" height="4" x="48" y="0"/><rect id="p" width="4" height="4" x="48" y="12"/><rect id="p" width="4" height="4" x="48" y="20"/><rect id="p" width="4" height="4" x="48" y="24"/><rect id="p" width="4" height="4" x="48" y="28"/><rect id="p" width="4" height="4" x="48" y="32"/><rect id="p" width="4" height="4" x="48" y="36"/><rect id="p" width="4" height="4" x="48" y="48"/><rect id="p" width="4" height="4" x="48" y="56"/><rect id="p" width="4" height="4" x="48" y="64"/><rect id="p" width="4" height="4" x="48" y="72"/><rect id="p" width="4" height="4" x="48" y="80"/><rect id="p" width="4" height="4" x="52" y="32"/><rect id="p" width="4" height="4" x="52" y="52"/><rect id="p" width="4" height="4" x="52" y="56"/><rect id="p" width="4" height="4" x="52" y="60"/><rect id="p" width="4" height="4" x="52" y="68"/><rect id="p" width="4" height="4" x="52" y="72"/><rect id="p" width="4" height="4" x="52" y="76"/><rect id="p" width="4" height="4" x="56" y="0"/><rect id="p" width="4" height="4" x="56" y="4"/><rect id="p" width="4" height="4" x="56" y="8"/><rect id="p" width="4" height="4" x="56" y="12"/><rect id="p" width="4" height="4" x="56" y="16"/><rect id="p" width="4" height="4" x="56" y="20"/><rect id="p" width="4" height="4" x="56" y="24"/><rect id="p" width="4" height="4" x="56" y="40"/><rect id="p" width="4" height="4" x="56" y="52"/><rect id="p" width="4" height="4" x="56" y="64"/><rect id="p" width="4" height="4" x="56" y="68"/><rect id="p" width="4" height="4" x="56" y="76"/><rect id="p" width="4" height="4" x="60" y="0"/><rect id="p" width="4" height="4" x="60" y="24"/><rect id="p" width="4" height="4" x="60" y="36"/><rect id="p" width="4" height="4" x="60" y="48"/><rect id="p" width="4" height="4" x="60" y="52"/><rect id="p" width="4" height="4" x="60" y="56"/><rect id="p" width="4" height="4" x="60" y="64"/><rect id="p" width="4" height="4" x="60" y="80"/><rect id="p" width="4" height="4" x="64" y="0"/><rect id="p" width="4" height="4" x="64" y="8"/><rect id="p" width="4" height="4" x="64" y="12"/><rect id="p" width="4" height="4" x="64" y="16"/><rect id="p" width="4" height="4" x="64" y="24"/><rect id="p" width="4" height="4" x="64" y="32"/><rect id="p" width="4" height="4" x="64" y="36"/><rect id="p" width="4" height="4" x="64" y="52"/><rect id="p" width="4" height="4" x="64" y="56"/><rect id="p" width="4" height="4" x="64" y="80"/><rect id="p" width="4" height="4" x="68" y="0"/><rect id="p" width="4" height="4" x="68" y="8"/><rect id="p" width="4" height="4" x="68" y="12"/><rect id="p" width="4" height="4" x="68" y="16"/><rect id="p" width="4" height="4" x="68" y="24"/><rect id="p" width="4" height="4" x="68" y="32"/><rect id="p" width="4" height="4" x="68" y="40"/><rect id="p" width="4" height="4" x="68" y="44"/><rect id="p" width="4" height="4" x="68" y="56"/><rect id="p" width="4" height="4" x="68" y="60"/><rect id="p" width="4" height="4" x="68" y="64"/><rect id="p" width="4" height="4" x="68" y="72"/><rect id="p" width="4" height="4" x="68" y="80"/><rect id="p" width="4" height="4" x="72" y="0"/><rect id="p" width="4" height="4" x="72" y="8"/><rect id="p" width="4" height="4" x="72" y="12"/><rect id="p" width="4" height="4" x="72" y="16"/><rect id="p" width="4" height="4" x="72" y="24"/><rect id="p" width="4" height="4" x="72" y="32"/><rect id="p" width="4" height="4" x="72" y="36"/><rect id="p" width="4" height="4" x="72" y="60"/><rect id="p" width="4" height="4" x="72" y="64"/><rect id="p" width="4" height="4" x="72" y="80"/><rect id="p" width="4" height="4" x="76" y="0"/><rect id="p" width="4" height="4" x="76" y="24"/><rect id="p" width="4" height="4" x="76" y="36"/><rect id="p" width="4" height="4" x="76" y="40"/><rect id="p" width="4" height="4" x="76" y="52"/><rect id="p" width="4" height="4" x="76" y="60"/><rect id="p" width="4" height="4" x="76" y="68"/><rect id="p" width="4" height="4" x="80" y="0"/><rect id="p" width="4" height="4" x="80" y="4"/><rect id="p" width="4" height="4" x="80" y="8"/><rect id="p" width="4" height="4" x="80" y="12"/><rect id="p" width="4" height="4" x="80" y="16"/><rect id="p" width="4" height="4" x="80" y="20"/><rect id="p" width="4" height="4" x="80" y="24"/><rect id="p" width="4" height="4" x="80" y="32"/><rect id="p" width="4" height="4" x="80" y="36"/><rect id="p" width="4" height="4" x="80" y="40"/><rect id="p" width="4" height="4" x="80" y="44"/><rect id="p" width="4" height="4" x="80" y="52"/><rect id="p" width="4" height="4" x="80" y="60"/><rect id="p" width="4" height="4" x="80" y="76"/></g><text id="Specter-DIY" fill="#F8FEFF" fill-opacity=".39" font-family="Helvetica" font-size="12" font-weight="normal"><tspan x="53" y="198">Specter DIY</tspan></text></g></g></svg>